<?xml version="1.0" encoding="UTF-8" standalone="no"?>
<!DOCTYPE svg  PUBLIC '-//W3C//DTD SVG 1.1//EN'  'http://www.w3.org/Graphics/SVG/1.1/DTD/svg11.dtd'>
<svg xmlns="http://www.w3.org/2000/svg">
<defs>
<font id="SegoeUI-Bold" horiz-adv-x="1178">
<font-face underline-position="-119" font-weight="700" descent="-410" panose-1="2 11 8 2 4 2 4 2 2 3" units-per-em="2048" unicode-range="U+0020-25CA" bbox="-203 -481 2482 1892" x-height="1024" underline-thickness="119" font-family="SegoeUI" ascent="1638" cap-height="1434"/>
<missing-glyph horiz-adv-x="2048"/>
<glyph glyph-name=".notdef" horiz-adv-x="2048"/>
<glyph glyph-name=".null" horiz-adv-x="0"/>
<glyph glyph-name="nonmarkingreturn" horiz-adv-x="2048"/>
<glyph glyph-name="space" horiz-adv-x="565" unicode=" "/>
<glyph glyph-name="exclam" horiz-adv-x="670" unicode="!" d="M336 -23q-80 0 -132 48.5t-52 117.5q0 72 52.5 118t131.5 46q80 0 131 -46.5t51 -117.5q0 -72 -50.5 -119t-131.5 -47zM500 1434l-39 -988h-256l-37 988h332z"/>
<glyph glyph-name="quotedbl" horiz-adv-x="1010" unicode='&quot;' d="M438 1452l-30 -442h-203l-29 442h262zM834 1452l-31 -444h-201l-31 444h263z"/>
<glyph glyph-name="numbersign" horiz-adv-x="1213" unicode="#" d="M750 889h-232l-55 -248h231zM1176 1069l-39 -180h-185l-55 -248h207l-45 -180h-199l-78 -346h-200l73 346h-229l-74 -346h-200l71 346h-186l37 180h188l53 248h-202l34 180h205l74 356h205l-74 -356h229l76 356h203l-74 -356h185z"/>
<glyph glyph-name="dollar" d="M674 545v-303q143 22 143 143q0 98 -143 160zM528 883v317q-139 -25 -139 -145q0 -103 139 -172zM674 8v-20FC7EBFAEB" unicode="$"/>
<glyph glyph-name="percent" horiz-adv-x="1776" unicode="%" d="M1339 551q-145 0 -145 -203q0 -192 141 -192q142 0 142 200q0 93 -38 144t-100 51zM1323 -20q-153 0 -246.5 97t-93.5 261q0 179 99.5 284t265.5 105q160 0 249 -94t89 -266q0 -177 -99 -282t-264 -105zM1477 1434l-934 -1434h-244l932 1434h246zM449 1278 q-146 0 -146 -203q0 -192 139 -192q142 0 142 200q0 195 -135 195zM430 707q-153 0 -246.5 97t-93.5 261q0 179 99.5 284t265.5 105q159 0 248.5 -95t89.5 -267q0 -177 -99 -281t-264 -104z"/>
<glyph glyph-name="ampersand" horiz-adv-x="1485" unicode="&amp;" d="M866 281q-68 73 -323 354q-162 -87 -162 -236q0 -95 64.5 -150.5t158.5 -55.5q156 0 262 88zM819 1122q0 57 -40.5 96t-92.5 39q-69 0 -112.5 -38.5t-43.5 -104.5q0 -75 121 -209q168 93 168 217zM1483 -2h-361l-108 121q-78 -64 -199.5 -104t-241.5 -40 q-229 0 -359 107.5t-130 288.5q0 239 328 411q-146 175 -146 326q0 154 116.5 252t303.5 98q180 0 285.5 -89t105.5 -226q0 -123 -68 -210t-231 -167l271 -293q75 122 75 297h256q0 -283 -176 -475z"/>
<glyph glyph-name="quotesingle" horiz-adv-x="600" unicode="&apos;" d="M430 1452l-31 -442h-200l-29 442h260z"/>
<glyph glyph-name="parenleft" horiz-adv-x="756" unicode="(" d="M739 -326h-258q-323 356 -323 875q0 501 323 885h256q-303 -402 -303 -885t305 -875z"/>
<glyph glyph-name="parenright" horiz-adv-x="756" unicode=")" d="M274 -326h-256q306 390 306 875q0 481 -306 885h258q324 -385 324 -885q0 -515 -326 -875z"/>
<glyph glyph-name="asterisk" horiz-adv-x="932" unicode="*" d="M864 1053l-274 -37l196 -211l-182 -125l-137 254l-137 -254l-183 125l197 211l-274 37l71 202l252 -108l-43 287h234l-43 -287l250 108z"/>
<glyph glyph-name="plus" horiz-adv-x="1448" unicode="+" d="M1212 485h-385v-385h-202v385h-387v203h387v387h202v-387h385v-203z"/>
<glyph glyph-name="comma" horiz-adv-x="555" unicode="," d="M432 252l-147 -506h-246l102 506h291z"/>
<glyph glyph-name="hyphen" horiz-adv-x="828" unicode="-" d="M690 436h-547v221h547v-221z"/>
<glyph glyph-name="period" horiz-adv-x="555" unicode="." d="M274 -25q-78 0 -130 48t-52 118q0 72 53.5 118t133.5 46q81 0 132.5 -46.5t51.5 -117.5q0 -73 -52.5 -119.5t-136.5 -46.5z"/>
<glyph glyph-name="slash" horiz-adv-x="908" unicode="../../../../default.htm" d="M932 1434l-699 -1672h-282l696 1672h285z"/>
<glyph glyph-name="zero" d="M596 1217q-205 0 -205 -515q0 -485 201 -485q196 0 196 500t-192 500zM582 -25q-512 0 -512 719q0 373 138.5 568.5t401.5 195.5q500 0 500 -731q0 -364 -136.5 -558t-391.5 -194z" unicode="0"/>
<glyph glyph-name="one" d="M1077 0h-907v250h297v893l-305 -66v256l620 125v-1208h295v-250z" unicode="1"/>
<glyph glyph-name="two" d="M471 268v-6h582v-262h-944v246l411 393q124 119 174.5 199.5t50.5 169.5q0 198 -213 198q-185 0 -354 -147v278q187 121 422 121q220 0 343.5 -110.5t123.5 -298.5q0 -251 -301 -519z" unicode="2"/>
<glyph glyph-name="three" d="M147 47v275q144 -105 336 -105q121 0 188.5 52t67.5 145q0 96 -83.5 148t-229.5 52h-129v242h119q280 0 280 186q0 175 -215 175q-144 0 -280 -93v258q151 76 352 76q220 0 342.5 -99t122.5 -257q0 -281 -285 -352v-5q152 -19 240 -110.5t88 -224.5q0 -201 -147 -318 t-406 -117q-222 0 -361 72z" unicode="3"/>
<glyph glyph-name="four" d="M668 1118h-6q-14 -36 -54 -112l-307 -476h363v451q0 60 4 137zM1124 305h-172v-305h-288v305h-625v201l602 928h311v-904h172v-225z" unicode="4"/>
<glyph glyph-name="five" d="M164 37v270q147 -90 313 -90q125 0 195.5 59.5t70.5 161.5q0 213 -301 213q-98 0 -237 -18v801h794v-258h-524v-287q63 6 119 6q221 0 346 -116t125 -312q0 -217 -149 -354.5t-404 -137.5q-207 0 -348 62z" unicode="5"/>
<glyph glyph-name="six" d="M612 688q-87 0 -138.5 -61t-51.5 -156q0 -105 52.5 -179.5t139.5 -74.5q85 0 136 66.5t51 173.5q0 231 -189 231zM1008 1419v-264q-109 62 -238 62q-159 0 -256.5 -121.5t-101.5 -325.5h6q103 152 301 152q180 0 285.5 -122t105.5 -323q0 -216 -140 -359t-356 -143 q-242 0 -378 175t-136 491q0 372 175 594.5t475 222.5q166 0 258 -39z" unicode="6"/>
<glyph glyph-name="seven" d="M1094 1288l-506 -1288h-334l510 1176h-668v258h998v-146z" unicode="7"/>
<glyph glyph-name="eight" d="M582 625q-201 -79 -201 -242q0 -78 61.5 -129t149.5 -51q95 0 153 50t58 132q0 164 -221 240zM768 1071q0 73 -46.5 116.5t-123.5 43.5q-75 0 -124.5 -45.5t-49.5 -116.5q0 -134 172 -203q172 71 172 205zM371 745v5q-246 101 -246 327q0 166 132 273.5t341 107.5 q213 0 340 -100.5t127 -259.5q0 -235 -272 -346v-4q146 -43 226.5 -141.5t80.5 -221.5q0 -190 -140.5 -300t-392.5 -110q-218 0 -351.5 107.5t-133.5 284.5q0 257 289 378z" unicode="8"/>
<glyph glyph-name="nine" d="M575 1217q-82 0 -135 -66.5t-53 -171.5q0 -109 52.5 -171.5t142.5 -62.5q82 0 134 59.5t52 149.5q0 113 -54.5 188t-138.5 75zM160 31v260q113 -74 272 -74q166 0 256.5 112.5t91.5 319.5l-6 2q-95 -141 -289 -141q-176 0 -291.5 123t-115.5 319q0 229 141 367.5 t365 138.5q230 0 366.5 -174t136.5 -498q0 -384 -164.5 -597.5t-459.5 -213.5q-175 0 -303 56z" unicode="9"/>
<glyph glyph-name="colon" horiz-adv-x="555" unicode=":" d="M274 -25q-78 0 -130 48t-52 118q0 72 53.5 118t133.5 46q81 0 132.5 -46.5t51.5 -117.5q0 -73 -52.5 -119.5t-136.5 -46.5zM274 707q-78 0 -130 47.5t-52 117.5q0 72 53.5 118t133.5 46q81 0 132.5 -46.5t51.5 -117.5q0 -73 -52.5 -119t-136.5 -46z"/>
<glyph glyph-name="semicolon" horiz-adv-x="555" unicode=";" d="M432 252l-147 -506h-246l102 506h291zM281 707q-79 0 -131 48t-52 117q0 73 52.5 118.5t132.5 45.5q81 0 132.5 -46.5t51.5 -117.5q0 -73 -51 -119t-135 -46z"/>
<glyph glyph-name="less" horiz-adv-x="1448" unicode="&lt;" d="M1192 63l-934 426v162l934 447v-238l-666 -285v-6l666 -268v-238z"/>
<glyph glyph-name="equal" horiz-adv-x="1448" unicode="=" d="M1212 266h-974v203h974v-203zM1212 700h-974v205h974v-205z"/>
<glyph glyph-name="greater" horiz-adv-x="1448" unicode="&gt;" d="M1192 502l-934 -426v237l668 267v4l-668 286v238l934 -444v-162z"/>
<glyph glyph-name="question" horiz-adv-x="897" unicode="?" d="M401 -23q-80 0 -133 48.5t-53 117.5q0 71 53 117.5t133 46.5t131.5 -46.5t51.5 -117.5q0 -72 -51 -119t-132 -47zM524 428h-260v84q0 183 144 303q98 83 126.5 131.5t28.5 106.5q0 62 -46 102.5t-120 40.5q-165 0 -313 -131v301q153 92 346 92q215 0 332 -97t117 -265 q0 -207 -209 -379q-81 -67 -113.5 -113.5t-32.5 -120.5v-55z"/>
<glyph glyph-name="at" horiz-adv-x="1954" unicode="@" d="M989 899q-90 0 -146.5 -102.5t-56.5 -237.5q0 -96 38.5 -149.5t99.5 -53.5q94 0 148 101t54 270q0 80 -37.5 126t-99.5 46zM1122 371h-6q-70 -191 -254 -191q-138 0 -222.5 100t-84.5 277q0 229 117 372.5t282 143.5q149 0 187 -117h4l10 99h225q-45 -426 -45 -557 q0 -140 76 -140q80 0 132 106t52 277q0 234 -149 383.5t-416 149.5q-286 0 -475.5 -199.5t-189.5 -486.5q0 -278 167.5 -438t462.5 -160q225 0 412 86v-191q-171 -73 -440 -73q-369 0 -600.5 211.5t-231.5 568.5q0 364 247 612t636 248q360 0 582.5 -192.5t222.5 -507.5 q0 -259 -136 -415.5t-337 -156.5q-99 0 -161 53t-67 138z"/>
<glyph glyph-name="A" horiz-adv-x="1440" unicode="A" d="M897 567l-154 482q-17 54 -24 129h-8q-5 -63 -25 -125l-156 -486h367zM1425 0h-352l-102 319h-510l-101 -319h-350l522 1434h383z"/>
<glyph glyph-name="B" horiz-adv-x="1313" unicode="B" d="M487 616v-378h175q112 0 175.5 52t63.5 142q0 86 -62.5 135t-174.5 49h-177zM487 1196v-340h142q100 0 157.5 48.5t57.5 133.5q0 158 -236 158h-121zM164 0v1434h522q240 0 369 -88t129 -248q0 -116 -78.5 -203t-200.5 -121v-4q153 -19 244.5 -113t91.5 -229 q0 -197 -141 -312.5t-385 -115.5h-551z"/>
<glyph glyph-name="C" horiz-adv-x="1278" unicode="C" d="M1192 51q-157 -76 -410 -76q-330 0 -519 194t-189 517q0 344 212.5 558t551.5 214q210 0 354 -53v-311q-144 86 -328 86q-202 0 -326 -127t-124 -344q0 -208 117 -331.5t315 -123.5q189 0 346 92v-295z"/>
<glyph glyph-name="D" horiz-adv-x="1510" unicode="D" d="M487 1171v-909h160q210 0 329.5 126t119.5 343q0 205 -118.5 322.5t-332.5 117.5h-158zM164 0v1434h508q764 0 764 -699q0 -335 -208.5 -535t-555.5 -200h-508z"/>
<glyph glyph-name="E" horiz-adv-x="1090" unicode="E" d="M1024 0h-860v1434h827v-263h-504v-319h469v-262h-469v-328h537v-262z"/>
<glyph glyph-name="F" horiz-adv-x="1065" unicode="F" d="M993 1171h-506v-352h465v-262h-465v-557h-323v1434h829v-263z"/>
<glyph glyph-name="G" horiz-adv-x="1456" unicode="G" d="M1341 96q-210 -121 -522 -121q-346 0 -545.5 191.5t-199.5 527.5q0 338 218 551t580 213q228 0 402 -63v-303q-166 96 -406 96q-201 0 -327.5 -130.5t-126.5 -348.5q0 -221 113.5 -342t306.5 -121q116 0 184 33v280h-287v258h610v-721z"/>
<glyph glyph-name="H" horiz-adv-x="1569" unicode="H" d="M1405 0h-324v584h-594v-584h-323v1434h323v-572h594v572h324v-1434z"/>
<glyph glyph-name="I" horiz-adv-x="649" unicode="I" d="M487 0h-323v1434h323v-1434z"/>
<glyph glyph-name="J" horiz-adv-x="912" unicode="J" d="M762 569q0 -288 -133.5 -441t-386.5 -153q-113 0 -209 39v303q83 -63 186 -63q221 0 221 328v852h322v-865z"/>
<glyph glyph-name="K" horiz-adv-x="1329" unicode="K" d="M1356 0h-408l-418 623q-12 18 -38 79h-5v-702h-323v1434h323v-678h5q12 28 40 80l396 598h385l-500 -684z"/>
<glyph glyph-name="L" horiz-adv-x="1047" unicode="L" d="M1018 0h-854v1434h323v-1172h531v-262z"/>
<glyph glyph-name="M" horiz-adv-x="1960" unicode="M" d="M1798 0h-319v858q0 139 12 307h-8q-25 -132 -45 -190l-336 -975h-264l-342 965q-14 39 -45 200h-9q13 -212 13 -372v-793h-291v1434h473l293 -850q35 -102 51 -205h6q27 119 57 207l293 848h461v-1434z"/>
<glyph glyph-name="N" horiz-adv-x="1618" unicode="N" d="M1454 0h-326l-591 901q-52 79 -72 119h-4q8 -76 8 -232v-788h-305v1434h348l569 -873q39 -59 72 -117h4q-8 50 -8 197v793h305v-1434z"/>
<glyph glyph-name="O" horiz-adv-x="1553" unicode="O" d="M784 1180q-170 0 -270 -127.5t-100 -337.5q0 -213 100 -337t262 -124q167 0 265 120.5t98 334.5q0 223 -95 347t-260 124zM770 -25q-308 0 -502 200.5t-194 522.5q0 340 197 550t522 210q307 0 496.5 -201t189.5 -530q0 -338 -196.5 -545t-512.5 -207z"/>
<glyph glyph-name="P" horiz-adv-x="1258" unicode="P" d="M487 1186v-447h127q258 0 258 226q0 221 -258 221h-127zM487 494v-494h-323v1434h506q542 0 542 -457q0 -216 -155.5 -349.5t-415.5 -133.5h-154z"/>
<glyph glyph-name="Q" horiz-adv-x="1553" unicode="Q" d="M784 1180q-170 0 -270 -127.5t-100 -337.5q0 -213 99.5 -337t262.5 -124q167 0 265 120.5t98 334.5q0 220 06B1771A04"/>
<glyph glyph-name="R" horiz-adv-x="1303" unicode="R" d="M487 1192v-399h140q104 0 167.5 60.5t63.5 150.5q0 188 -225 188h-146zM1266 0h-371l-145 369q-71 180 -193 180h-70v-549h-323v1434h512q522 0 522 -390q0 -149 -85.5 -252t-238.5 -143v-4q126 -40 205 -221z"/>
<glyph glyph-name="S" horiz-adv-x="1098" unicode="S" d="M106 55v320q172 -146 379 -146q99 0 154 40.5t55 105.5q0 56 -46 105.5t-220 131.5q-328 155 -328 420q0 193 142.5 309.5t380.5 116.5q210 0 348 -55v-299q-144 100 -330 100q-93 0 -147 -40t-54 -105q0 -64 42.5 -109t179.5 -110q212 -101 292 -201t80 -236 q0 -198 -142.5 -313t-414.5 -115q-223 0 -371 80z"/>
<glyph glyph-name="T" horiz-adv-x="1200" unicode="T" d="M1171 1171h-409v-1171h-324v1171h-407v263h1140v-263z"/>
<glyph glyph-name="U" horiz-adv-x="1481" unicode="U" d="M1333 621q0 -646 -602 -646q-584 0 -584 631v828h324v-832q0 -348 272 -348q267 0 267 336v844h323v-813z"/>
<glyph glyph-name="V" horiz-adv-x="1366" unicode="V" d="M1358 1434l-494 -1434h-366l-488 1434h348l299 -998q24 -81 29 -143h6q7 67 31 147l297 994h338z"/>
<glyph glyph-name="W" horiz-adv-x="2058" unicode="W" d="M2040 1434l-379 -1434h-358l-238 920q-19 72 -23 161h-4q-9 -98 -26 -161l-244 -920h-373l-377 1434h353l202 -955q13 -61 19 -164h6q4 77 29 168l260 951h346l235 -963q13 -53 23 -154h4q4 79 21 160l198 957h326z"/>
<glyph glyph-name="X" horiz-adv-x="1342" unicode="X" d="M1335 0h-383l-247 467q-14 26 -29 96h-4q-7 -33 -33 -100l-248 -463h-385l457 717l-418 717h393l205 -430q24 -51 43 -121h4q12 42 45 125l228 426h360l-430 -711z"/>
<glyph glyph-name="Y" horiz-adv-x="1243" unicode="Y" d="M1245 1434l-467 -924v-510h-323v504l-455 930h369l231 -535q6 -15 33 -117h4q13 72 31 113l235 539h342z"/>
<glyph glyph-name="Z" horiz-adv-x="1243" unicode="Z" d="M1196 0h-1155v186l735 985h-682v263h1100v-181l-719 -991h721v-262z"/>
<glyph glyph-name="bracketleft" horiz-adv-x="756" unicode="[" d="M686 -326h-469v1760h469v-201h-209v-1358h209v-201z"/>
<glyph glyph-name="backslash" horiz-adv-x="893" unicode="\" d="M961 -238h-279l-682 1672h281z"/>
<glyph glyph-name="bracketright" horiz-adv-x="756" unicode="]" d="M541 -326h-471v201h211v1358h-211v201h471v-1760z"/>
<glyph glyph-name="asciicircum" horiz-adv-x="1448" unicode="^" d="M1249 610h-243l-287 586h-4l-271 -586h-241l430 848h162z"/>
<glyph glyph-name="underscore" horiz-adv-x="850" unicode="_" d="M850 -297h-850v119h850v-119z"/>
<glyph glyph-name="grave" horiz-adv-x="643" unicode="`" d="M596 1186h-227l-314 323h281z"/>
<glyph glyph-name="a" horiz-adv-x="1102" unicode="a" d="M688 416v69l-186 -24q-154 -20 -154 -139q0 -54 37.5 -88.5t101.5 -34.5q89 0 145 61.5t56 155.5zM985 0h-299v147h-4q-103 -172 -305 -172q-149 0 -234.5 84.5t-85.5 225.5q0 298 353 344l278 37q0 168 -182 168q-183 0 -348 -109v238q66 34 180.5 60t208.5 26 q438 0 438 -437v-612z"/>
<glyph glyph-name="b" horiz-adv-x="1270" unicode="b" d="M444 551v-105q0 -99 57 -164t146 -65q108 0 167.5 83.5t59.5 236.5q0 127 -54.5 198.5t-155.5 71.5q-95 0 -157.5 -71t-62.5 -185zM453 119h-4v-119h-316v1516h316v-646h4q117 179 333 179q198 0 305 -136t107 -372q0 -256 -125 -411t-334 -155q-189 0 -286 144z"/>
<glyph glyph-name="c" horiz-adv-x="983" unicode="c" d="M909 37q-107 -62 -309 -62q-236 0 -382 143t-146 369q0 261 156.5 411.5t418.5 150.5q181 0 262 -48v-268q-99 74 -221 74q-136 0 -215.5 -79.5t-79.5 -219.5q0 -136 76 -213.5t209 -77.5q118 0 231 74v-254z"/>
<glyph glyph-name="d" horiz-adv-x="1268" unicode="d" d="M825 498v77q0 100 -58 166t-151 66q-105 0 -164 -82.5t-59 -226.5q0 -135 57 -208t158 -73q96 0 156.5 77t60.5 204zM1135 0h-316v141h-4q-108 -166 -317 -166q-192 0 -309 135.5t-117 378.5q0 254 129 407t338 153q198 0 276 -142h4v609h316v-1516z"/>
<glyph glyph-name="e" horiz-adv-x="1108" unicode="e" d="M760 616q0 220 -178 220q-76 0 -131.5 -63t-67.5 -157h377zM1053 422h-668q16 -223 281 -223q169 0 297 80v-228q-142 -76 -369 -76q-248 0 -385 137.5t-137 383.5q0 255 148 404t364 149q224 0 346.5 -133t122.5 -361v-133z"/>
<glyph glyph-name="f" horiz-adv-x="785" unicode="f" d="M801 1274q-61 24 -117 24q-152 0 -152 -165v-109h234v-233h-234v-791h-315v791h-172v233h172v127q0 175 114 282t310 107q96 0 160 -20v-246z"/>
<glyph glyph-name="g" horiz-adv-x="1268" unicode="g" d="M825 492v81q0 97 -57.5 165.5t-149.5 68.5q-105 0 -165 -82t-60 -231q0 -128 57 -202.5t156 -74.5q98 0 158.5 75.5t60.5 199.5zM1137 117q0 -285 -165 -441.5t-478 -156.5q-207 0 -328 59v266q158 -92 319 -92q160 0 248 84.5t88 229.5v81h-4q-108 -172 -319 -172 q-196 0 -311 138t-115 370q0 260 128 413t337 153q187 0 280 -144h4v119h316v-907z"/>
<glyph glyph-name="h" horiz-adv-x="1233" unicode="h" d="M1116 0h-315v582q0 225 -164 225q-84 0 -136 -63t-52 -160v-584h-316v1516h316v-644h4q116 177 315 177q348 0 348 -420v-629z"/>
<glyph glyph-name="i" horiz-adv-x="582" unicode="i" d="M449 0h-316v1024h316v-1024zM293 1186q-80 0 -131 47.5t-51 116.5q0 71 51 116t131 45q81 0 131.5 -45t50.5 -116q0 -72 -50.5 -118t-131.5 -46z"/>
<glyph glyph-name="j" horiz-adv-x="582" unicode="j" d="M449 18q0 -227 -111 -363t-320 -136q-69 0 -151 30v248q66 -37 117 -37q149 0 149 234v1030h316v-1006zM293 1186q-80 0 -131 47.5t-51 116.5q0 71 51 116t131 45q81 0 131.5 -45t50.5 -116q0 -72 -50.5 -118t-131.5 -46z"/>
<glyph glyph-name="k" horiz-adv-x="1145" unicode="k" d="M1159 0h-379l-327 508h-4v-508h-316v1516h316v-965h4l305 473h375l-367 -481z"/>
<glyph glyph-name="l" horiz-adv-x="582" unicode="l" d="M449 0h-316v1516h316v-1516z"/>
<glyph glyph-name="m" horiz-adv-x="1876" unicode="m" d="M1759 0h-315v584q0 223 -164 223q-78 0 -127 -67t-49 -167v-573h-316v590q0 217 -161 217q-81 0 -129.5 -64t-48.5 -174v-569h-316v1024h316v-160h4q49 82 137.5 133.5t193.5 51.5q217 0 297 -191q117 191 344 191q334 0 334 -412v-637z"/>
<glyph glyph-name="n" horiz-adv-x="1239" unicode="n" d="M1122 0h-315v569q0 238 -170 238q-82 0 -135 -63t-53 -160v-584h-316v1024h316v-162h4q113 187 329 187q340 0 340 -422v-627z"/>
<glyph glyph-name="o" horiz-adv-x="1252" unicode="o" d="M629 807q-112 0 -174 -77t-62 -218q0 -295 238 -295q227 0 227 303q0 287 -229 287zM621 -25q-256 0 -402.5 143.5t-146.5 389.5q0 254 152 397.5t411 143.5q255 0 400 -143.5t145 -379.5q0 -255 -149.5 -403t-409.5 -148z"/>
<glyph glyph-name="p" horiz-adv-x="1270" unicode="p" d="M444 539v-82q0 -106 56 -173t147 -67q108 0 167.5 83.5t59.5 236.5q0 270 -210 270q-97 0 -158.5 -73.5t-61.5 -194.5zM453 119h-4v-590h-316v1495h316v-154h4q117 179 329 179q199 0 307.5 -136.5t108.5 -371.5q0 -256 -126.5 -411t-336.5 -155q-185 0 -282 144z"/>
<glyph glyph-name="q" horiz-adv-x="1268" unicode="q" d="M825 489v82q0 100 -58 168t-149 68q-105 0 -165 -82.5t-60 -228.5q0 -131 58.5 -205t152.5 -74q100 0 160.5 75t60.5 197zM1135 -471h-316v612h-4q-107 -166 -315 -166q-193 0 -310.5 134.5t-117.5 377.5q0 256 129 409t336 153q188 0 278 -144h4v119h316v-1495z"/>
<glyph glyph-name="r" horiz-adv-x="815" unicode="r" d="M801 739q-57 31 -133 31q-103 0 -161 -75.5t-58 -205.5v-489h-316v1024h316v-190h4q75 208 270 208q50 0 78 -12v-291z"/>
<glyph glyph-name="s" horiz-adv-x="901" unicode="s" d="M94 27v256q156 -93 293 -93q150 0 150 93q0 41 -36 67t-157 72q-140 53 -195 123.5t-55 177.5q0 148 117 237t313 89q127 0 254 -41v-244q-119 70 -250 70q-125 0 -125 -86q0 -43 30 -70t130 -62q153 -54 215 -125.5t62 -177.5q0 -155 -118.5 -246.5t-330.5 -91.5 q-159 0 -297 52z"/>
<glyph glyph-name="t" horiz-adv-x="797" unicode="t" d="M752 12q-70 -37 -211 -37q-334 0 -334 347v469h-166v233h166v221l315 90v-311h230v-233h-230v-414q0 -160 127 -160q50 0 103 29v-234z"/>
<glyph glyph-name="u" horiz-adv-x="1239" unicode="u" d="M1106 0h-315v156h-5q-117 -181 -313 -181q-356 0 -356 431v618h315v-590q0 -217 172 -217q85 0 136 59.5t51 161.5v586h315v-1024z"/>
<glyph glyph-name="v" horiz-adv-x="1110" unicode="v" d="M1108 1024l-381 -1024h-360l-363 1024h338l178 -631q30 -107 35 -182h4q7 71 37 176l182 637h330z"/>
<glyph glyph-name="w" horiz-adv-x="1633" unicode="w" d="M1616 1024l-295 -1024h-332l-151 600q-15 60 -17 131h-6q-7 -78 -20 -127l-162 -604h-328l-289 1024h322l141 -668q10 -47 15 -114h6q5 70 18 118l176 664h301l158 -668q6 -25 14 -116h7q5 58 16 116l133 668h293z"/>
<glyph glyph-name="x" horiz-adv-x="1131" unicode="x" d="M1122 1024l-338 -496l336 -528h-364l-148 276q-18 33 -43 93h-4q-15 -42 -41 -90l-149 -279h-363l346 510l-325 514h366l146 -287q29 -57 41 -96h4q16 47 43 98l149 285h344z"/>
<glyph glyph-name="y" horiz-adv-x="1102" unicode="y" d="M1108 1024l-416 -1106q-150 -399 -452 -399q-115 0 -189 26v252q63 -37 137 -37q122 0 170 115l54 127l-416 1022h350l191 -623q18 -58 28 -137h4q9 58 33 135l193 625h313z"/>
<glyph glyph-name="z" horiz-adv-x="981" unicode="z" d="M944 0h-919v131l514 660h-463v233h864v-156l-487 -635h491v-233z"/>
<glyph glyph-name="braceleft" horiz-adv-x="756" unicode="{" d="M674 -326q-218 0 -317 80t-99 285v240q0 184 -152 184v184q152 0 152 191v223q0 206 98 289.5t318 83.5v-187q-160 0 -160 -174v-213q0 -240 -154 -303v-4q154 -62 154 -307v-205q0 -98 37.5 -139t122.5 -41v-187z"/>
<glyph glyph-name="bar" horiz-adv-x="668" unicode="|" d="M461 -481h-252v2048h252v-2048z"/>
<glyph glyph-name="braceright" horiz-adv-x="756" unicode="}" d="M651 463q-153 0 -153 -187v-231q0 -211 -97.5 -291t-316.5 -80v187q84 0 122 40.5t38 137.5v213q0 239 153 299v4q-153 63 -153 313v205q0 174 -160 174v187q218 0 316 -83.5t98 -285.5v-229q0 -189 153 -189v-184z"/>
<glyph glyph-name="asciitilde" horiz-adv-x="1448" unicode="~" d="M1255 772q-6 -168 -89.5 -266t-223.5 -98q-106 0 -258 88q-109 63 -156 63q-123 0 -129 -160h-204q6 169 89.5 267t227.5 98q112 0 238 -76q130 -78 180 -78q52 0 85.5 44.5t35.5 117.5h204z"/>
<glyph glyph-name="nonbreakingspace" horiz-adv-x="565" unicode=" "/>
<glyph glyph-name="exclamdown" horiz-adv-x="670" unicode="¡" d="M504 -408h-332l37 990h256zM336 721q-81 0 -132.5 46t-51.5 116q0 72 51.5 119t132.5 47q79 0 130.5 -48t51.5 -118q0 -72 -51.5 -117t-130.5 -45z"/>
<glyph glyph-name="cent" d="M662 399v559q-195 -59 -195 -280q0 -222 195 -279zM1004 207q-73 -42 -181 -55v-189h-161v184q-216 12 -354 151.5t-138 358.5q0 234 134 381.5t358 171.5v211h161v-207q110 -6 181 -45v-272q-76 58 -181 70v-574q108 17 181 68v-254z" unicode="¢"/>
<glyph glyph-name="sterling" d="M1114 0h-971v227q193 52 193 269v116h-172v217h172v187q0 198 122 320t330 122q127 0 234 -49v-258q-98 66 -209 66q-184 0 -184 -230v-158h268v-217h-268v-86q0 -184 -152 -284h637v-242z" unicode="£"/>
<glyph glyph-name="currency" horiz-adv-x="1139" unicode="¤" d="M569 965q-100 0 -169.5 -69.5t-69.5 -168.5t69.5 -168.5t169.5 -69.5t171 69.5t71 168.5q0 98 -73 168t-169 70zM1087 358l-141 -145l-143 141q-105 -65 -234 -65q-127 0 -233 65l-143 -141l-142 145l142 138q-66 110 -66 229q0 121 66 229l-142 140l142 145l143 -141 q106 65 233 65q129 0 234 -65l143 141l141 -145l-141 -140q68 -111 68 -229q0 -115 -68 -229z"/>
<glyph glyph-name="yen" d="M1157 1434l-354 -641h252v-189h-305v-153h305v-189h-305v-262h-308v262h-315v189h315v153h-315v189h256l-342 641h321l246 -570h4q4 11 37 90l203 480h305z" unicode="¥"/>
<glyph glyph-name="brokenbar" horiz-adv-x="668" unicode="¦" d="M461 -481h-252v895h252v-895zM461 684h-252v883h252v-883z"/>
<glyph glyph-name="section" horiz-adv-x="994" unicode="§" d="M432 864q-65 -38 -65 -110q0 -57 51 -102t178 -99q66 44 66 123q0 62 -53.5 100.5t-176.5 87.5zM752 434q82 -75 82 -174q0 -149 -108.5 -237.5t-285.5 -88.5q-163 0 -290 68v248q180 -105 311 -105q127 0 127 99q0 61 -96 108q-141 65 -210 112.5t-110 116.5t-41 150 q0 143 125 234q-88 88 -88 215q0 140 102.5 225.5t274.5 85.5q139 0 260 -55v-250q-139 96 -260 96q-123 0 -123 -94q0 -45 40.5 -77.5t184.5 -96.5q254 -112 254 -309q0 -167 -149 -271z"/>
<glyph glyph-name="dieresis" horiz-adv-x="946" unicode="¨" d="M240 1186q-68 0 -111 39.5t-43 97.5q0 60 44 98.5t110 38.5q68 0 110.5 -38.5t42.5 -98.5q0 -61 -42.5 -9902D1D53AD2"/>
<glyph glyph-name="copyright" horiz-adv-x="1790" unicode="©" d="M1204 295q-125 -68 -274 -68q-209 0 -346.5 134t-137.5 335q0 231 143.5 370.5t373.5 139.5q125 0 239 -550B5CA6FAF5"/>
<glyph glyph-name="ordfeminine" horiz-adv-x="840" unicode="ª" d="M526 985v70l-123 -17q-116 -16 -116 -96q0 -88 104 -88q54 0 94.5 38.5t40.5 92.5zM739 717h-213v86h-4q-87 -107 -219 -107q-101 0 -166 61t-65 158q0 211 262 244l192 25q0 114 -139 114q-118 0 -246 -77v176q124 57 287 57q311 0 311 -299v-438z"/>
<glyph glyph-name="guillemotleft" horiz-adv-x="1190" unicode="«" d="M651 201h-268l-330 336l330 344h266l-334 -344zM1137 201h-269l-327 336l327 344h269l-334 -344z"/>
<glyph glyph-name="logicalnot" horiz-adv-x="1448" unicode="¬" d="M1212 266h-202v389h-772v203h974v-592z"/>
<glyph glyph-name="sfthyphen" horiz-adv-x="819" unicode="­" d="M690 506h-547v129h547v-129z"/>
<glyph glyph-name="registered" horiz-adv-x="1790" unicode="®" d="M774 1010v-230h111q139 0 139 119q0 111 -160 111h-90zM1288 264h-254l-76 232q-40 122 -110 122h-74v-3540063165A58"/>
<glyph glyph-name="uni00AF" horiz-adv-x="425" unicode="¯" d="M425 698h-425v60h425v-60z"/>
<glyph glyph-name="degree" horiz-adv-x="778" unicode="°" d="M399 1307q-54 0 -91.5 -37.5t-37.5 -91.5t37.5 -92.5t91.5 -38.5q53 0 91 38.5t38 92.5t-37.5 91.5t-91.5 071A101A87"/>
<glyph glyph-name="plusminus" horiz-adv-x="1448" unicode="±" d="M1210 0h-972v203h972v-203zM1212 694h-385v-387h-202v387h-383v203h383v391h202v-391h385v-203z"/>
<glyph glyph-name="twosuperior" horiz-adv-x="828" unicode="²" d="M721 584h-604v157l248 234q77 73 95.5 110t18.5 82q0 42 -28.5 69.5t-75.5 27.5q-98 0 -211 -103v215q118 78 250 78q136 0 215.5 -68.5t79.5 -189.5q0 -70 -37.5 -141t-179.5 -197l-105 -92v-4h334v-178z"/>
<glyph glyph-name="threesuperior" horiz-adv-x="828" unicode="³" d="M131 616v181q107 -68 221 -68q150 0 150 102q0 103 -172 103h-117v166h113q149 0 149 96q0 90 -119 90q-107 0 -198 -65v176q99 57 239 57q134 0 211.5 -60.5t77.5 -160.5q0 -147 -143 -195v-4q172 -41 172 -198q0 -123 -98 -198t-257 -75q-133 0 -229 53z"/>
<glyph glyph-name="acute" horiz-adv-x="621" unicode="´" d="M596 1509l-313 -323h-228l260 323h281z"/>
<glyph glyph-name="mu1" horiz-adv-x="1255" unicode="µ" d="M1161 0h-324q-25 70 -25 154h-4q-57 -177 -216 -177q-97 0 -140 64h-3v-436h-316v1419h316v-589q0 -207 170 -207q184 0 184 254v542h319v-710q0 -236 39 -314z"/>
<glyph glyph-name="paragraph" horiz-adv-x="1043" unicode="¶" d="M946 1272h-117v-1272h-174v1272h-118v-1272h-177v836q-115 7 -191.5 92t-76.5 211q0 129 85.5 212t211.5 83h557v-162z"/>
<glyph glyph-name="periodcentered" horiz-adv-x="555" unicode="·" d="M274 487q-78 0 -130 48t-52 118q0 72 53.5 118t133.5 46q81 0 132.5 -46.5t51.5 -117.5q0 -73 -52.5 -119.5t-136.5 -46.5z"/>
<glyph glyph-name="cedilla" horiz-adv-x="441" unicode="¸" d="M51 -451v138q35 -6 72 -6q123 0 123 73q0 66 -111 66q-13 0 -37 -2v182h172v-82q187 -8 187 -166q0 -207 -318 -207q-46 0 -88 4z"/>
<glyph glyph-name="onesuperior" horiz-adv-x="807" unicode="¹" d="M721 584h-563v172h176v477l-191 -41v180l406 82v-698h172v-172z"/>
<glyph glyph-name="ordmasculine" horiz-adv-x="934" unicode="º" d="M465 1280q-164 0 -164 -203q0 -207 164 -207q160 0 160 209q0 201 -160 201zM459 696q-185 0 -287 99.5t-1012947EA15"/>
<glyph glyph-name="guillemotright" horiz-adv-x="1190" unicode="»" d="M651 537l-329 -336h-269l336 336l-334 344h267zM1137 537l-328 -336h-268l333 336l-331 344h266z"/>
<glyph glyph-name="onequarter" horiz-adv-x="1950" unicode="¼" d="M676 584h-563v172h176v477l-191 -41v180l406 82v-698h172v-172zM1505 1434l-891 -1434h-244l891 1434h244zM1526 678h-8q-14 -36 -39 -76l-168 -271h211v263q0 47 4 84zM1845 176h-110v-176h-213v176h-395v141l350 533h258v-519h110v-155z"/>
<glyph glyph-name="onehalf" horiz-adv-x="1977" unicode="½" d="M676 584h-563v172h176v477l-191 -41v180l406 82v-698h172v-172zM1506 1434l-891 -1434h-244l891 1434h244zM1843 0h-604v157l248 234q77 73 95.5 110t18.5 82q0 42 -28.5 69.5t-75.5 27.5q-98 0 -211 -103v215q118 78 250 78q136 0 215.5 -68.5t79.5 -189.5 q0 -70 -37.5 -141t-179.5 -197l-105 -92v-4h334v-178z"/>
<glyph glyph-name="threequarters" horiz-adv-x="2005" unicode="¾" d="M131 616v181q107 -68 221 -68q150 0 150 102q0 103 -172 103h-117v166h113q149 0 149 96q0 90 -119 90q-107 0 -198 -65v176q99 57 239 57q134 0 211.5 -60.5t77.5 -160.5q0 -147 -143 -195v-4q172 -41 172 -198q0 -123 -98 -198t-257 -75q-133 0 -229 53zM1565 1434 l-891 -1434h-244l891 1434h244zM1573 678h-8q-14 -36 -39 -76l-168 -271h211v263q0 47 4 84zM1892 176h-110v-176h-213v176h-395v141l350 533h258v-519h110v-155z"/>
<glyph glyph-name="questiondown" horiz-adv-x="897" unicode="¿" d="M825 -340q-153 -92 -346 -92q-215 0 -331.5 97t-116.5 265q0 208 209 379q80 65 112.5 112t32.5 122v55h260v-84q0 -183 -143 -303q-100 -84 -128 -132t-28 -106q0 -62 46 -102.5t120 -40.5q166 0 313 131v-301zM510 721q-81 0 -132.5 45.5t-51.5 116.5q0 72 51.5 119 t132.5 47q80 0 132 -48.5t52 -117.5q0 -72 -52 -117t-132 -45z"/>
<glyph glyph-name="Agrave" horiz-adv-x="1440" unicode="À" d="M897 567l-154 482q-17 54 -24 129h-8q-5 -63 -25 -125l-156 -486h367zM1425 0h-352l-102 319h-510l-101 -319h-350l522 1434h383zM916 1567h-227l-314 323h281z"/>
<glyph glyph-name="Aacute" horiz-adv-x="1440" unicode="Á" d="M897 567l-154 482q-17 54 -24 129h-8q-5 -63 -25 -125l-156 -486h367zM1425 0h-352l-102 319h-510l-101 -319h-350l522 1434h383zM1036 1890l-313 -323h-228l260 323h281z"/>
<glyph glyph-name="Acircumflex" horiz-adv-x="1440" unicode="Â" d="M897 567l-154 482q-17 54 -24 129h-8q-5 -63 -25 -125l-156 -486h367zM1425 0h-352l-102 319h-510l-101 -319h-350l522 1434h383zM1078 1567h-207l-158 188l-147 -188h-207l235 325h248z"/>
<glyph glyph-name="Atilde" horiz-adv-x="1440" unicode="Ã" d="M897 567l-154 482q-17 54 -24 129h-8q-5 -63 -25 -125l-156 -486h367zM1425 0h-352l-102 319h-510l-101 -319h-350l522 1434h383zM1077 1878q0 -140 -55.5 -216.5t-151.5 -76.5q-86 0 -168 43q-89 47 -123 47q-80 0 -80 -108h-141q0 139 55 216t154 77q81 0 168 -49 q79 -44 120 -44q78 0 78 111h144z"/>
<glyph glyph-name="Adieresis" horiz-adv-x="1440" unicode="Ä" d="M897 567l-154 482q-17 54 -24 129h-8q-5 -63 -25 -125l-156 -486h367zM1425 0h-352l-102 319h-510l-101 -30373D5DA9F"/>
<glyph glyph-name="Aring" horiz-adv-x="1440" unicode="Å" d="M893 584l-152 465q-13 40 -22 120h-8q-7 -68 -23 -116l-153 -469h358zM719 1645q-47 0 -75 -28.5t-28 -70.5q0 -98 103 -98q48 0 77 28.5t29 69.5q0 43 -29.5 71t-76.5 28zM1425 0h-352l-102 319h-510l-101 -319h-350l512 1407q-53 54 -53 137q0 106 73.5 169t180.5 63 q114 0 184 -63.5t70 -164.5q0 -80 -53 -137z"/>
<glyph glyph-name="AE" horiz-adv-x="1915" unicode="Æ" d="M991 567v604h-78l-282 -604h360zM1849 0h-858v319h-471l-147 -319h-375l725 1434h1094v-263h-504v-319h469v-262h-469v-328h536v-262z"/>
<glyph glyph-name="Ccedilla" horiz-adv-x="1278" unicode="Ç" d="M1192 51q-139 -67 -363 -76v-57q187 -8 187 -166q0 -207 -318 -207q-46 0 -88 4v138q35 -6 72 -6q123 0 123 73q0 66 -111 66q-13 0 -37 -2v166q-275 36 -429 224t-154 478q0 344 212.5 558t551.5 214q210 0 354 -53v-311q-144 86 -328 86q-202 0 -326 -127t-124 -344 q0 -208 117 -331.5t315 -123.5q189 0 346 92v-295z"/>
<glyph glyph-name="Egrave" horiz-adv-x="1090" unicode="È" d="M1024 0h-860v1434h827v-263h-504v-319h469v-262h-469v-328h537v-262zM766 1567h-227l-314 323h281z"/>
<glyph glyph-name="Eacute" horiz-adv-x="1090" unicode="É" d="M1024 0h-860v1434h827v-263h-504v-319h469v-262h-469v-328h537v-262zM934 1890l-313 -323h-228l260 323h281z"/>
<glyph glyph-name="Ecircumflex" horiz-adv-x="1090" unicode="Ê" d="M1024 0h-860v1434h827v-263h-504v-319h469v-262h-469v-328h537v-262zM932 1567h-207l-158 188l-147 -188h-207l235 325h248z"/>
<glyph glyph-name="Edieresis" horiz-adv-x="1090" unicode="Ë" d="M1024 0h-860v1434h827v-263h-504v-319h469v-262h-469v-328h537v-262zM354 1567q-68 0 -111 39.5t-43 97.5q055BAF3AF6"/>
<glyph glyph-name="Igrave" horiz-adv-x="649" unicode="Ì" d="M487 0h-323v1434h323v-1434zM532 1567h-227l-314 323h281z"/>
<glyph glyph-name="Iacute" horiz-adv-x="649" unicode="Í" d="M487 0h-323v1434h323v-1434zM651 1890l-313 -323h-228l260 323h281z"/>
<glyph glyph-name="Icircumflex" horiz-adv-x="649" unicode="Î" d="M487 0h-323v1434h323v-1434zM691 1567h-207l-158 188l-147 -188h-207l235 325h248z"/>
<glyph glyph-name="Idieresis" horiz-adv-x="649" unicode="Ï" d="M487 0h-323v1434h323v-1434zM101 1567q-68 0 -111 39.5t-43 97.5q0 60 44 98.5t110 38.5q68 0 110.5 -38.50508660A59"/>
<glyph glyph-name="Eth" horiz-adv-x="1510" unicode="Ð" d="M487 1171v-319h271v-266h-271v-324h160q210 0 329.5 126t119.5 343q0 205 -118.5 322.5t-332.5 117.5h-158zM164 0v586h-164v266h164v582h508q764 0 764 -699q0 -335 -208.5 -535t-555.5 -200h-508z"/>
<glyph glyph-name="Ntilde" horiz-adv-x="1618" unicode="Ñ" d="M1454 0h-326l-591 901q-52 79 -72 119h-4q8 -76 8 -232v-788h-305v1434h348l569 -873q39 -59 72 -117h4q-8 50 -8 197v793h305v-1434zM1206 1878q0 -140 -55.5 -216.5t-151.5 -76.5q-86 0 -168 43q-89 47 -123 47q-80 0 -80 -108h-141q0 139 55 216t154 77q81 0 168 -49 q79 -44 120 -44q78 0 78 111h144z"/>
<glyph glyph-name="Ograve" horiz-adv-x="1552" unicode="Ò" d="M784 1180q-170 0 -270 -127.5t-100 -337.5q0 -213 100 -337t262 -124q167 0 265 120.5t98 334.5q0 223 -95 347t-260 124zM770 -25q-308 0 -502 200.5t-194 522.5q0 340 197 550t522 210q307 0 496.5 -201t189.5 -530q0 -338 -196.5 -545t-512.5 -207zM971 1567h-227 l-314 323h281z"/>
<glyph glyph-name="Oacute" horiz-adv-x="1552" unicode="Ó" d="M784 1180q-170 0 -270 -127.5t-100 -337.5q0 -213 100 -337t262 -124q167 0 265 120.5t98 334.5q0 223 -95 347t-260 124zM770 -25q-308 0 -502 200.5t-194 522.5q0 340 197 550t522 210q307 0 496.5 -201t189.5 -530q0 -338 -196.5 -545t-512.5 -207zM1110 1890 l-313 -323h-228l260 323h281z"/>
<glyph glyph-name="Ocircumflex" horiz-adv-x="1552" unicode="Ô" d="M784 1180q-170 0 -270 -127.5t-100 -337.5q0 -213 100 -337t262 -124q167 0 265 120.5t98 334.5q0 223 -95 347t-260 124zM770 -25q-308 0 -502 200.5t-194 522.5q0 340 197 550t522 210q307 0 496.5 -201t189.5 -530q0 -338 -196.5 -545t-512.5 -207zM1149 1567h-207 l-158 188l-147 -188h-207l235 325h248z"/>
<glyph glyph-name="Otilde" horiz-adv-x="1552" unicode="Õ" d="M784 1180q-170 0 -270 -127.5t-100 -337.5q0 -213 100 -337t262 -124q167 0 265 120.5t98 334.5q0 223 -95 347t-260 124zM770 -25q-308 0 -502 200.5t-194 522.5q0 340 197 550t522 210q307 0 496.5 -201t189.5 -530q0 -338 -196.5 -545t-512.5 -207zM1147 1878 q0 -140 -55.5 -216.5t-151.5 -76.5q-86 0 -168 43q-89 47 -123 47q-80 0 -80 -108h-141q0 139 55 216t154 77q81 0 168 -49q79 -44 120 -44q78 0 78 111h144z"/>
<glyph glyph-name="Odieresis" horiz-adv-x="1552" unicode="Ö" d="M784 1180q-170 0 -270 -127.5t-100 -337.5q0 -213 100 -337t262 -124q167 0 265 120.5t98 334.5q0 223 -950DA60FAA8F"/>
<glyph glyph-name="multiply" horiz-adv-x="1448" unicode="×" d="M1210 248l-145 -144l-338 340l-340 -340l-145 146l340 336l-340 340l141 145l344 -340l342 340l139 -151l-338 -334z"/>
<glyph glyph-name="Oslash" horiz-adv-x="1553" unicode="Ø" d="M1110 995l-578 -676q101 -92 244 -92q175 0 281 128.5t106 351.5q0 164 -53 288zM1016 1130q-97 76 -232 76q-181 0 -287 -136.5t-106 -360.5q0 -146 47 -252zM348 109l-143 -170l-125 104l149 176q-155 192 -155 479q0 340 196.5 550t522.5 210q234 0 401 -119l129 150 l125 -103l-135 -157q166 -196 166 -502q0 -338 -196.5 -545t-512.5 -207q-240 0 -422 134z"/>
<glyph glyph-name="Ugrave" horiz-adv-x="1481" unicode="Ù" d="M1333 621q0 -646 -602 -646q-584 0 -584 631v828h324v-832q0 -348 272 -348q267 0 267 336v844h323v-813zM920 1567h-227l-314 323h281z"/>
<glyph glyph-name="Uacute" horiz-adv-x="1481" unicode="Ú" d="M1333 621q0 -646 -602 -646q-584 0 -584 631v828h324v-832q0 -348 272 -348q267 0 267 336v844h323v-813zM1088 1890l-313 -323h-228l260 323h281z"/>
<glyph glyph-name="Ucircumflex" horiz-adv-x="1481" unicode="Û" d="M1333 621q0 -646 -602 -646q-584 0 -584 631v828h324v-832q0 -348 272 -348q267 0 267 336v844h323v-813zM1099 1567h-207l-158 188l-147 -188h-207l235 325h248z"/>
<glyph glyph-name="Udieresis" horiz-adv-x="1481" unicode="Ü" d="M1333 621q0 -646 -602 -646q-584 0 -584 631v828h324v-832q0 -348 272 -348q267 0 267 336v844h323v-813zM0D5DFC3A24"/>
<glyph glyph-name="Yacute" horiz-adv-x="1243" unicode="Ý" d="M1245 1434l-467 -924v-510h-323v504l-455 930h369l231 -535q6 -15 33 -117h4q13 72 31 113l235 539h342zM903 1857l-313 -323h-228l260 323h281z"/>
<glyph glyph-name="Thorn" horiz-adv-x="1258" unicode="Þ" d="M487 975v-447h127q258 0 258 226q0 221 -258 221h-127zM487 281v-281h-323v1434h323v-211h183q542 0 542 -457q0 -216 -155.5 -350.5t-415.5 -134.5h-154z"/>
<glyph glyph-name="germandbls" horiz-adv-x="1286" unicode="ß" d="M545 8v262q83 -53 176 -53q83 0 132.5 52.5t49.5 144.5q0 116 -89 183.5t-251 72.5v221q111 8 172.5 68t61.5 159q0 84 -44.5 132t-119.5 48q-184 0 -184 -245v-1053h-316v1049q0 223 137 357t381 134q217 0 343 -109.5t126 -281.5q0 -122 -71.5 -214t-184.5 -126v-4 q363 -69 363 -399q0 -180 -126.5 -305.5t-342.5 -125.5q-105 0 -213 33z"/>
<glyph glyph-name="agrave" horiz-adv-x="1102" unicode="à" d="M688 416v69l-186 -24q-154 -20 -154 -139q0 -54 37.5 -88.5t101.5 -34.5q89 0 145 61.5t56 155.5zM985 0h-299v147h-4q-103 -172 -305 -172q-149 0 -234.5 84.5t-85.5 225.5q0 298 353 344l278 37q0 168 -182 168q-183 0 -348 -109v238q66 34 180.5 60t208.5 26 q438 0 438 -437v-612zM775 1186h-227l-314 323h281z"/>
<glyph glyph-name="aacute" horiz-adv-x="1102" unicode="á" d="M688 416v69l-186 -24q-154 -20 -154 -139q0 -54 37.5 -88.5t101.5 -34.5q89 0 145 61.5t56 155.5zM985 0h-299v147h-4q-103 -172 -305 -172q-149 0 -234.5 84.5t-85.5 225.5q0 298 353 344l278 37q0 168 -182 168q-183 0 -348 -109v238q66 34 180.5 60t208.5 26 q438 0 438 -437v-612zM891 1509l-313 -323h-228l260 323h281z"/>
<glyph glyph-name="acircumflex" horiz-adv-x="1102" unicode="â" d="M688 416v69l-186 -24q-154 -20 -154 -139q0 -54 37.5 -88.5t101.5 -34.5q89 0 145 61.5t56 155.5zM985 0h-299v147h-4q-103 -172 -305 -172q-149 0 -234.5 84.5t-85.5 225.5q0 298 353 344l278 37q0 168 -182 168q-183 0 -348 -109v238q66 34 180.5 60t208.5 26 q438 0 438 -437v-612zM914 1186h-207l-158 188l-147 -188h-207l235 325h248z"/>
<glyph glyph-name="atilde" horiz-adv-x="1102" unicode="ã" d="M688 416v69l-186 -24q-154 -20 -154 -139q0 -54 37.5 -88.5t101.5 -34.5q89 0 145 61.5t56 155.5zM985 0h-299v147h-4q-103 -172 -305 -172q-149 0 -234.5 84.5t-85.5 225.5q0 298 353 344l278 37q0 168 -182 168q-183 0 -348 -109v238q66 34 180.5 60t208.5 26 q438 0 438 -437v-612zM907 1497q0 -140 -55.5 -216.5t-151.5 -76.5q-86 0 -168 43q-89 47 -123 47q-80 0 -80 -108h-141q0 139 55 216t154 77q81 0 168 -49q79 -44 120 -44q78 0 78 111h144z"/>
<glyph glyph-name="adieresis" horiz-adv-x="1102" unicode="ä" d="M688 416v69l-186 -24q-154 -20 -154 -139q0 -54 37.5 -88.5t101.5 -34.5q89 0 145 61.5t56 155.5zM985 0h-02811D2AEC"/>
<glyph glyph-name="aring" horiz-adv-x="1102" unicode="å" d="M688 416v69l-186 -24q-154 -20 -154 -139q0 -54 37.5 -88.5t101.5 -34.5q89 0 145 61.5t56 155.5zM985 0h-05F996BAF1"/>
<glyph glyph-name="ae" horiz-adv-x="1696" unicode="æ" d="M686 414v45l-156 -13q-184 -15 -184 -131q0 -50 39 -83t102 -33q86 0 142.5 59.5t56.5 155.5zM1348 616q0 220 -177 220q-75 0 -131.5 -62t-66.5 -158h375zM1640 422h-667q20 -223 282 -223q160 0 297 80v-226q-156 -78 -378 -78q-269 0 -398 179h-4q-141 -179 -362 -179 q-166 0 -259.5 82.5t-93.5 229.5q0 146 96.5 234t276.5 102l256 20q0 191 -184 191q-174 0 -344 -107v236q187 86 370 86q234 0 324 -134h4q132 134 326 134q214 0 336 -133t122 -365v-129z"/>
<glyph glyph-name="ccedilla" horiz-adv-x="983" unicode="ç" d="M909 37q-96 -55 -264 -62v-57q186 -7 186 -166q0 -207 -317 -207q-46 0 -88 4v138q35 -6 72 -6q123 0 123 73q0 66 -111 66q-13 0 -37 -2v170q-184 37 -292.5 172.5t-108.5 326.5q0 261 156.5 411.5t418.5 150.5q181 0 262 -48v-268q-99 74 -221 74q-136 0 -215.5 -79.5 t-79.5 -219.5q0 -136 76 -213.5t209 -77.5q118 0 231 74v-254z"/>
<glyph glyph-name="egrave" horiz-adv-x="1108" unicode="è" d="M760 616q0 220 -178 220q-76 0 -131.5 -63t-67.5 -157h377zM1053 422h-668q16 -223 281 -223q169 0 297 80v-228q-142 -76 -369 -76q-248 0 -385 137.5t-137 383.5q0 255 148 404t364 149q224 0 346.5 -133t122.5 -361v-133zM795 1186h-227l-314 323h281z"/>
<glyph glyph-name="eacute" horiz-adv-x="1108" unicode="é" d="M760 616q0 220 -178 220q-76 0 -131.5 -63t-67.5 -157h377zM1053 422h-668q16 -223 281 -223q169 0 297 80v-228q-142 -76 -369 -76q-248 0 -385 137.5t-137 383.5q0 255 148 404t364 149q224 0 346.5 -133t122.5 -361v-133zM921 1509l-313 -323h-228l260 323h281z"/>
<glyph glyph-name="ecircumflex" horiz-adv-x="1108" unicode="ê" d="M760 616q0 220 -178 220q-76 0 -131.5 -63t-67.5 -157h377zM1053 422h-668q16 -223 281 -223q169 0 297 80v-228q-142 -76 -369 -76q-248 0 -385 137.5t-137 383.5q0 255 148 404t364 149q224 0 346.5 -133t122.5 -361v-133zM949 1186h-207l-158 188l-147 -188h-207 l235 325h248z"/>
<glyph glyph-name="edieresis" horiz-adv-x="1108" unicode="ë" d="M760 616q0 220 -178 220q-76 0 -131.5 -63t-67.5 -157h377zM1053 422h-668q16 -223 281 -223q169 0 297 800D22364A54"/>
<glyph glyph-name="igrave" horiz-adv-x="582" unicode="ì" d="M449 0h-316v1024h316v-1024zM514 1186h-227l-314 323h281z"/>
<glyph glyph-name="iacute" horiz-adv-x="582" unicode="í" d="M449 0h-316v1024h316v-1024zM612 1509l-313 -323h-228l260 323h281z"/>
<glyph glyph-name="icircumflex" horiz-adv-x="582" unicode="î" d="M449 0h-316v1024h316v-1024zM657 1186h-207l-158 188l-147 -188h-207l235 325h248z"/>
<glyph glyph-name="idieresis" horiz-adv-x="582" unicode="ï" d="M449 0h-316v1024h316v-1024zM68 1186q-68 0 -111 39.5t-43 97.5q0 60 44 98.5t110 38.5q68 0 110.5 -38.5t0F1AA90ADC"/>
<glyph glyph-name="eth" horiz-adv-x="1215" unicode="ð" d="M612 807q-103 0 -161 -78.5t-58 -214.5q0 -140 57 -218.5t158 -78.5q98 0 155.5 81.5t57.5 221.5q0 287 -209 287zM756 965l4 2q-84 147 -195 237l-291 -143l-81 141l241 115q-157 125 -270 199h352q11 -6 131 -97l273 133l77 -137l-215 -104q361 -291 361 -748 q0 -260 -150 -424t-395 -164q-248 0 -387 144.5t-139 394.5q0 231 132.5 378.5t346.5 147.5q117 0 205 -75z"/>
<glyph glyph-name="ntilde" horiz-adv-x="1239" unicode="ñ" d="M1122 0h-315v569q0 238 -170 238q-82 0 -135 -63t-53 -160v-584h-316v1024h316v-162h4q113 187 329 187q340 0 340 -422v-627zM982 1497q0 -140 -55.5 -216.5t-151.5 -76.5q-86 0 -168 43q-89 47 -123 47q-80 0 -80 -108h-141q0 139 55 216t154 77q81 0 168 -49 q79 -44 120 -44q78 0 78 111h144z"/>
<glyph glyph-name="ograve" horiz-adv-x="1251" unicode="ò" d="M629 807q-112 0 -174 -77t-62 -218q0 -295 238 -295q227 0 227 303q0 287 -229 287zM621 -25q-256 0 -402.5 143.5t-146.5 389.5q0 254 152 397.5t411 143.5q255 0 400 -143.5t145 -379.5q0 -255 -149.5 -403t-409.5 -148zM852 1186h-227l-314 323h281z"/>
<glyph glyph-name="oacute" horiz-adv-x="1251" unicode="ó" d="M629 807q-112 0 -174 -77t-62 -218q0 -295 238 -295q227 0 227 303q0 287 -229 287zM621 -25q-256 0 -402.5 143.5t-146.5 389.5q0 254 152 397.5t411 143.5q255 0 400 -143.5t145 -379.5q0 -255 -149.5 -403t-409.5 -148zM968 1509l-313 -323h-228l260 323h281z"/>
<glyph glyph-name="ocircumflex" horiz-adv-x="1251" unicode="ô" d="M629 807q-112 0 -174 -77t-62 -218q0 -295 238 -295q227 0 227 303q0 287 -229 287zM621 -25q-256 0 -402.5 143.5t-146.5 389.5q0 254 152 397.5t411 143.5q255 0 400 -143.5t145 -379.5q0 -255 -149.5 -403t-409.5 -148zM988 1186h-207l-158 188l-147 -188h-207 l235 325h248z"/>
<glyph glyph-name="otilde" horiz-adv-x="1251" unicode="õ" d="M629 807q-112 0 -174 -77t-62 -218q0 -295 238 -295q227 0 227 303q0 287 -229 287zM621 -25q-256 0 -402.5 143.5t-146.5 389.5q0 254 152 397.5t411 143.5q255 0 400 -143.5t145 -379.5q0 -255 -149.5 -403t-409.5 -148zM985 1497q0 -140 -55.5 -216.5t-151.5 -76.5 q-86 0 -168 43q-89 47 -123 47q-80 0 -80 -108h-141q0 139 55 216t154 77q81 0 168 -49q79 -44 120 -44q78 0 78 111h144z"/>
<glyph glyph-name="odieresis" horiz-adv-x="1251" unicode="ö" d="M629 807q-112 0 -174 -77t-62 -218q0 -295 238 -295q227 0 227 303q0 287 -229 287zM621 -25q-256 0 -402.07BC5E1A77"/>
<glyph glyph-name="divide" horiz-adv-x="1448" unicode="÷" d="M727 47q-59 0 -100 39t-41 96q0 62 39.5 104t101.5 42t99.5 -40.5t37.5 -103.5q0 -61 -40 -99t-97 -38zM1212 485h-974v203h974v-203zM731 846q-59 0 -100 40t-41 97q0 62 39.5 103.5t101.5 41.5t99.5 -40t37.5 -103q0 -61 -40.5 -100t-96.5 -39z"/>
<glyph glyph-name="oslash" horiz-adv-x="1252" unicode="ø" d="M862 651l-393 -409q61 -45 160 -45q252 0 252 323q0 74 -19 131zM772 791q-56 40 -141 40q-258 0 -258 -317q0 -73 18 -121zM1206 1010l-139 -146q113 -143 113 -338q0 -259 -148 -404t-411 -145q-198 0 -328 86l-135 -141l-119 107l137 143q-104 141 -104 338 q0 253 152.5 397t412.5 144q179 0 311 -82l139 147z"/>
<glyph glyph-name="ugrave" horiz-adv-x="1239" unicode="ù" d="M1106 0h-315v156h-5q-117 -181 -313 -181q-356 0 -356 431v618h315v-590q0 -217 172 -217q85 0 136 59.5t51 161.5v586h315v-1024zM784 1186h-227l-314 323h281z"/>
<glyph glyph-name="uacute" horiz-adv-x="1239" unicode="ú" d="M1106 0h-315v156h-5q-117 -181 -313 -181q-356 0 -356 431v618h315v-590q0 -217 172 -217q85 0 136 59.5t51 161.5v586h315v-1024zM977 1509l-313 -323h-228l260 323h281z"/>
<glyph glyph-name="ucircumflex" horiz-adv-x="1239" unicode="û" d="M1106 0h-315v156h-5q-117 -181 -313 -181q-356 0 -356 431v618h315v-590q0 -217 172 -217q85 0 136 59.5t51 161.5v586h315v-1024zM970 1186h-207l-158 188l-147 -188h-207l235 325h248z"/>
<glyph glyph-name="udieresis" horiz-adv-x="1239" unicode="ü" d="M1106 0h-315v156h-5q-117 -181 -313 -181q-356 0 -356 431v618h315v-590q0 -217 172 -217q85 0 136 59.5t50165223AD7"/>
<glyph glyph-name="yacute" horiz-adv-x="1102" unicode="ý" d="M1108 1024l-416 -1106q-150 -399 -452 -399q-115 0 -189 26v252q63 -37 137 -37q122 0 170 115l54 127l-416 1022h350l191 -623q18 -58 28 -137h4q9 58 33 135l193 625h313zM834 1509l-313 -323h-228l260 323h281z"/>
<glyph glyph-name="thorn" horiz-adv-x="1270" unicode="þ" d="M444 539v-82q0 -106 56 -173t147 -67q108 0 167.5 83.5t59.5 236.5q0 270 -210 270q-97 0 -158.5 -73.5t-61.5 -194.5zM453 119h-4v-590h-316v1987h316v-646h4q117 179 329 179q199 0 307.5 -136.5t108.5 -371.5q0 -256 -126.5 -411t-336.5 -155q-185 0 -282 144z"/>
<glyph glyph-name="dotlessi" horiz-adv-x="582" unicode="ı" d="M449 0h-316v1024h316v-1024z"/>
<glyph glyph-name="OE" horiz-adv-x="1925" unicode="Œ" d="M991 305v823q-86 52 -209 52q-168 0 -267 -129.5t-99 -339.5q0 -208 101 -332.5t261 -124.5q116 0 213 51zM1860 0h-828q-26 0 -117 -12q-90 -13 -157 -13q-307 0 -495.5 203t-188.5 520q0 342 194 551t516 209q63 0 151 -12q89 -12 109 -12h783v-263h-504v-323h469v-264 h-469v-322h537v-262z"/>
<glyph glyph-name="oe" horiz-adv-x="1893" unicode="œ" d="M631 807q-113 0 -175.5 -77.5t-62.5 -217.5q0 -293 236 -293q229 0 229 297q0 138 -59.5 214.5t-167.5 76.5zM1542 616q0 220 -174 220q-80 0 -135 -63.5t-66 -156.5h375zM1837 422h-670q14 -223 283 -223q167 0 295 80v-228q-142 -76 -346 -76q-252 0 -391 189h-4 q-137 -187 -408 -187q-234 0 -379 143t-145 388q0 251 147 397t389 146q134 0 238.5 -49.5t154.5 -127.5h5q118 175 376 175q213 0 334 -134t121 -358v-135z"/>
<glyph glyph-name="Scaron" horiz-adv-x="1098" unicode="Š" d="M106 55v320q172 -146 379 -146q99 0 154 40.5t55 105.5q0 56 -46 105.5t-220 131.5q-328 155 -328 420q0 193 142.5 309.5t380.5 116.5q210 0 348 -55v-299q-144 100 -330 100q-93 0 -147 -40t-54 -105q0 -64 42.5 -109t179.5 -110q212 -101 292 -201t80 -236 q0 -198 -142.5 -313t-414.5 -115q-223 0 -371 80zM916 1861l-238 -325h-248l-235 325h205l155 -188l156 188h205z"/>
<glyph glyph-name="scaron" horiz-adv-x="901" unicode="š" d="M94 27v256q156 -93 293 -93q150 0 150 93q0 41 -36 67t-157 72q-140 53 -195 123.5t-55 177.5q0 148 117 237t313 89q127 0 254 -41v-244q-119 70 -250 70q-125 0 -125 -86q0 -43 30 -70t130 -62q153 -54 215 -125.5t62 -177.5q0 -155 -118.5 -246.5t-330.5 -91.5 q-159 0 -297 52zM772 1511l-238 -325h-248l-235 325h205l155 -188l156 188h205z"/>
<glyph glyph-name="Ydieresis" horiz-adv-x="1243" unicode="Ÿ" d="M1245 1434l-467 -924v-510h-323v504l-455 930h369l231 -535q6 -15 33 -117h4q13 72 31 113l235 539h342zM40E90FB6AEA"/>
<glyph glyph-name="circumflex" horiz-adv-x="785" unicode="ˆ" d="M750 1186h-207l-158 188l-147 -188h-207l235 325h248z"/>
<glyph glyph-name="caron" horiz-adv-x="785" unicode="ˇ" d="M754 1511l-238 -325h-248l-235 325h205l155 -188l156 188h205z"/>
<glyph glyph-name="ring" horiz-adv-x="555" unicode="˚" d="M274 1499q-96 0 -96 -94t96 -94q45 0 74 27.5t29 66.5q0 41 -28.5 67.5t-74.5 26.5zM274 1186q-102 0 -1680520BECA26"/>
<glyph glyph-name="tilde" horiz-adv-x="785" unicode="˜" d="M754 1497q0 -140 -55.5 -216.5t-151.5 -76.5q-86 0 -168 43q-89 47 -123 47q-80 0 -80 -108h-141q0 139 55 216t154 77q81 0 168 -49q79 -44 120 -44q78 0 78 111h144z"/>
<glyph glyph-name="Alpha" horiz-adv-x="1440" unicode="Α" d="M897 567l-154 482q-17 54 -24 129h-8q-5 -63 -25 -125l-156 -486h367zM1425 0h-352l-102 319h-510l-101 -319h-350l522 1434h383z"/>
<glyph glyph-name="Beta" horiz-adv-x="1313" unicode="Β" d="M487 616v-378h175q112 0 175.5 52t63.5 142q0 86 -62.5 135t-174.5 49h-177zM487 1196v-340h142q100 0 157.5 48.5t57.5 133.5q0 158 -236 158h-121zM164 0v1434h522q240 0 369 -88t129 -248q0 -116 -78.5 -203t-200.5 -121v-4q153 -19 244.5 -113t91.5 -229 q0 -197 -141 -312.5t-385 -115.5h-551z"/>
<glyph glyph-name="Gamma" horiz-adv-x="1048" unicode="Γ" d="M1019 1168h-532v-1168h-323v1434h855v-266z"/>
<glyph glyph-name="Epsilon" horiz-adv-x="1090" unicode="Ε" d="M1024 0h-860v1434h827v-263h-504v-319h469v-262h-469v-328h537v-262z"/>
<glyph glyph-name="Zeta" horiz-adv-x="1243" unicode="Ζ" d="M1196 0h-1155v186l735 985h-682v263h1100v-181l-719 -991h721v-262z"/>
<glyph glyph-name="Eta" horiz-adv-x="1569" unicode="Η" d="M1405 0h-324v584h-594v-584h-323v1434h323v-572h594v572h324v-1434z"/>
<glyph glyph-name="Theta" horiz-adv-x="1553" unicode="Θ" d="M1004 594h-453v244h453v-244zM784 1179q-170 0 -269.5 -126.5t-99.5 -336.5q0 -213 99.5 -337t261.5 -124q166 0 264 120t98 334q0 223 -94.5 346.5t-259.5 123.5zM771 -25q-308 0 -502.5 200.5t-194.5 522.5q0 340 196.5 550t521.5 210q307 0 497 -201t190 -530 q0 -338 -196.5 -545t-511.5 -207z"/>
<glyph glyph-name="Iota" horiz-adv-x="649" unicode="Ι" d="M487 0h-323v1434h323v-1434z"/>
<glyph glyph-name="Kappa" horiz-adv-x="1329" unicode="Κ" d="M1356 0h-408l-418 623q-12 18 -38 79h-5v-702h-323v1434h323v-678h5q12 28 40 80l396 598h385l-500 -684z"/>
<glyph glyph-name="Lambda" horiz-adv-x="1419" unicode="Λ" d="M1401 0h-352l-313 1039q-18 60 -27 135h-7q-7 -58 -29 -131l-315 -1043h-347l507 1434h393z"/>
<glyph glyph-name="Mu" horiz-adv-x="1960" unicode="Μ" d="M1798 0h-319v858q0 139 12 307h-8q-25 -132 -45 -190l-336 -975h-264l-342 965q-14 39 -45 200h-9q13 -212 13 -372v-793h-291v1434h473l293 -850q35 -102 51 -205h6q27 119 57 207l293 848h461v-1434z"/>
<glyph glyph-name="Nu" horiz-adv-x="1618" unicode="Ν" d="M1454 0h-326l-591 901q-52 79 -72 119h-4q8 -76 8 -232v-788h-305v1434h348l569 -873q39 -59 72 -117h4q-8 50 -8 197v793h305v-1434z"/>
<glyph glyph-name="Xi" horiz-adv-x="1134" unicode="Ξ" d="M1074 0h-1014v270h1014v-270zM905 589h-677v264h677v-264zM1050 1166h-967v268h967v-268z"/>
<glyph glyph-name="Omicron" horiz-adv-x="1553" unicode="Ο" d="M784 1180q-170 0 -270 -127.5t-100 -337.5q0 -213 100 -337t262 -124q167 0 265 120.5t98 334.5q0 223 -95 347t-260 124zM770 -25q-308 0 -502 200.5t-194 522.5q0 340 197 550t522 210q307 0 496.5 -201t189.5 -530q0 -338 -196.5 -545t-512.5 -207z"/>
<glyph glyph-name="Pi" horiz-adv-x="1567" unicode="Π" d="M1404 0h-323v1152h-594v-1152h-323v1434h1240v-1434z"/>
<glyph glyph-name="Rho" horiz-adv-x="1258" unicode="Ρ" d="M487 1186v-447h127q258 0 258 226q0 221 -258 221h-127zM487 494v-494h-323v1434h506q542 0 542 -457q0 -216 -155.5 -349.5t-415.5 -133.5h-154z"/>
<glyph glyph-name="Sigma" horiz-adv-x="1165" unicode="Σ" d="M1125 0h-1083v172l462 554l-437 523v185h996v-265h-540l353 -429l-384 -480h633v-260z"/>
<glyph glyph-name="Tau" horiz-adv-x="1200" unicode="Τ" d="M1171 1171h-409v-1171h-324v1171h-407v263h1140v-263z"/>
<glyph glyph-name="Upsilon" horiz-adv-x="1243" unicode="Υ" d="M1245 1434l-467 -924v-510h-323v504l-455 930h369l231 -535q6 -15 33 -117h4q13 72 31 113l235 539h342z"/>
<glyph glyph-name="Phi" horiz-adv-x="1670" unicode="Φ" d="M687 424v637h-18q-127 0 -203 -88t-76 -228q0 -148 75.5 -234.5t202.5 -86.5h19zM985 1061v-637h19q126 0 201.5 87.5t75.5 235.5q0 141 -75.5 227.5t-201.5 86.5h-19zM985 178v-198h-300v198h-23q-259 0 -423 161.5t-164 410.5q0 243 167 398t421 155h22v149h300v-150 h23q257 0 421.5 -153t164.5 -393q0 -250 -166 -414t-421 -164h-22z"/>
<glyph glyph-name="Chi" horiz-adv-x="1342" unicode="Χ" d="M1335 0h-383l-247 467q-14 26 -29 96h-4q-7 -33 -33 -100l-248 -463h-385l457 717l-418 717h393l205 -430q24 -51 43 -121h4q12 42 45 125l228 426h360l-430 -711z"/>
<glyph glyph-name="Psi" horiz-adv-x="1692" unicode="Ψ" d="M1558 895q0 -240 -152.5 -389t-396.5 -152h-23v-354h-280v354h-24q-234 0 -391.5 147.5t-157.5 392.5v540h285v-517q0 -293 263 -294h25v811h280v-811h24q263 0 263 294v517h285v-539z"/>
<glyph glyph-name="alpha" horiz-adv-x="1304" unicode="α" d="M795 526q-58 283 -203 283q-88 0 -145.5 -85t-57.5 -222q0 -130 47.5 -206t122.5 -76q141 0 221 259zM1266 1024l-214 -498l166 -526h-315l-47 214h-6q-124 -239 -358 -239q-192 0 -305.5 138.5t-113.5 369.5q0 252 132 409t347 157q247 0 334 -211h5l56 186h319z"/>
<glyph glyph-name="beta" horiz-adv-x="1275" unicode="β" d="M563 670v221q103 6 167 67.5t64 159.5q0 83 -44 129.5t-119 46.5q-182 0 -182 -236v-774q108 -66 218 -66q215 0 215 204q0 237 -319 248zM449 25v-419h-316v1442q0 223 134.5 355.5t364.5 132.5q225 0 353.5 -105.5t128.5 -282.5q0 -120 -70 -211t-185 -128v-4 q161 -32 253 -137t92 -256q0 -196 -135 -316t-358 -120q-135 0 -262 49z"/>
<glyph glyph-name="gamma" horiz-adv-x="1161" unicode="γ" d="M689 -74q0 -321 -4 -407h-322q19 205 19 501q-33 183 -163.5 497t-246.5 507h366q212 -416 279 -747h4q174 312 174 602q0 64 -12 145h309q7 -66 7 -107q0 -223 -81.5 -442t-328.5 -549z"/>
<glyph glyph-name="delta" horiz-adv-x="1253" unicode="δ" d="M623 791q-101 -34 -165.5 -117t-64.5 -191q0 -120 63.5 -193t171.5 -73q107 0 168.5 73t61.5 192q0 183 -235 309zM425 932q-204 125 -204 308q0 136 120 216t316 80q169 0 375 -77v-298q-196 133 -351 133q-138 0 -138 -86q0 -41 48 -80.5t220 -132.5q369 -198 369 -501 q0 -236 -149.5 -377.5t-413.5 -141.5q-248 0 -396.5 139t-148.5 345q0 341 353 473z"/>
<glyph glyph-name="epsilon" horiz-adv-x="948" unicode="ε" d="M883 254v-233q-155 -46 -366 -46q-213 0 -331.5 78t-118.5 219q0 198 230 253v5q-82 21 -137.5 84t-55.5 147q0 137 112.5 212.5t320.5 75.5q167 0 302 -41v-232q-145 60 -259 60q-154 0 -154 -100q0 -117 205 -117q68 0 117 7v-208q-54 6 -146 6q-214 0 -214 -120 q0 -116 199 -116q143 0 296 66z"/>
<glyph glyph-name="zeta" horiz-adv-x="953" unicode="ζ" d="M860 -309h-339q116 80 116 172q0 51 -53 86.5t-188 72.5q-330 79 -330 434q0 362 522 827v4h-384v229h690v-231q-505 -470 -505 -790q0 -101 54 -164t186 -101q178 -53 249 -130t71 -189q0 -123 -89 -220z"/>
<glyph glyph-name="eta" horiz-adv-x="1252" unicode="η" d="M1122 -395h-319v936q0 238 -167 238q-84 0 -135.5 -61t-51.5 -157v-561h-316v676q0 263 -41 348h324q31 -64 31 -164h5q113 189 330 189q340 0 340 -422v-1022z"/>
<glyph glyph-name="theta" horiz-adv-x="1253" unicode="θ" d="M854 650h-458q21 -431 233 -431q205 0 225 431zM854 878q-22 415 -227 415q-204 0 -230 -415h457zM620 -25q-257 0 -402.5 205.5t-145.5 574.5t149.5 575.5t414.5 206.5q260 0 402 -204t142 -557q0 -377 -147 -589t-413 -212z"/>
<glyph glyph-name="iota" horiz-adv-x="672" unicode="ι" d="M653 14q-71 -33 -185 -33q-314 0 -314 335v708h316v-661q0 -130 88 -130q45 0 95 23v-242z"/>
<glyph glyph-name="kappa" horiz-adv-x="1168" unicode="κ" d="M1168 0h-368l-261 421l-90 -93v-328h-316v1024h316v-422l189 237q159 200 306 200q92 0 137 -13v-257q-36 13 -89 13q-68 0 -158 -95l-73 -77z"/>
<glyph glyph-name="lambda" horiz-adv-x="1124" unicode="λ" d="M1103 0h-332l-198 708l-229 -708h-339l445 1016l-38 106q-46 127 -152 127q-69 0 -141 -37v271q80 27 198 27q146 0 241.5 -80.5t163.5 -285.5z"/>
<glyph glyph-name="mu" horiz-adv-x="1254" unicode="μ" d="M1122 0h-313v131h-4q-27 -64 -87 -105.5t-128 -41.5q-97 0 -141 61h-5l2 -389h-313v1368h316v-561q0 -240 163 -240q81 0 137 52t56 137v612h317v-1024z"/>
<glyph glyph-name="nu" horiz-adv-x="1134" unicode="ν" d="M670 0h-285l-409 1024h336l263 -770q174 220 174 491q0 79 -19 164t-41 115h316q39 -70 39 -242q0 -357 -374 -782z"/>
<glyph glyph-name="xi" horiz-adv-x="978" unicode="ξ" d="M875 -309h-340q117 76 117 164q0 56 -50.5 86.5t-157.5 52.5q-380 78 -380 400q0 145 95 256t256 160q-142 66 -142 214q0 177 218 258v5q-43 -1 -122 -1l-195 1v229h694v-222q-136 -28 -223 -98t-87 -161q0 -108 100 -157q28 0 173 8v-252q-66 4 -143 4q-131 0 -216 -57 t-85 -152q0 -152 223 -199q196 -42 275 -115t79 -190q0 -127 -89 -234z"/>
<glyph glyph-name="omicron" horiz-adv-x="1252" unicode="ο" d="M629 807q-112 0 -174 -77t-62 -218q0 -295 238 -295q227 0 227 303q0 287 -229 287zM621 -25q-256 0 -402.5 143.5t-146.5 389.5q0 254 152 397.5t411 143.5q255 0 400 -143.5t145 -379.5q0 -255 -149.5 -403t-409.5 -148z"/>
<glyph glyph-name="pi" horiz-adv-x="1418" unicode="π" d="M1352 791h-222v-414q0 -144 87 -144q45 0 94 23v-242q-82 -32 -176 -32q-320 0 -320 342v467h-248v-480q0 -211 -41 -311h-321q47 121 47 328v463q-121 -2 -242 -84v254q87 63 246 63h1096v-233z"/>
<glyph glyph-name="rho" horiz-adv-x="1266" unicode="ρ" d="M446 307q83 -90 198 -90q228 0 228 296q0 128 -62.5 211t-161.5 83q-202 0 -202 -266v-234zM450 70h-4v-465h-317v903q0 257 135 399t392 142q248 0 393 -142.5t145 -386.5q0 -248 -126.5 -396.5t-339.5 -148.5q-169 0 -278 95z"/>
<glyph glyph-name="sigma1" horiz-adv-x="999" unicode="ς" d="M866 -309h-332q117 81 117 172q0 99 -201 142q-180 39 -279.5 151.5t-99.5 281.5q0 276 168.5 443.5t410.5 167.5q161 0 261 -50v-268q-99 76 -221 76q-126 0 -211 -97t-85 -244q0 -92 52 -147.5t194 -90.5q315 -77 315 -316q0 -128 -89 -221z"/>
<glyph glyph-name="sigma" horiz-adv-x="1256" unicode="σ" d="M722 796h-72q-255 0 -255 -299q0 -130 57 -205t151 -75q93 0 144.5 78t51.5 216q0 161 -77 285zM1238 796h-225q108 -137 108 -318q0 -231 -137.5 -367t-377.5 -136q-246 0 -390 144.5t-144 390.5q0 250 140.5 382t408.5 132h617v-228z"/>
<glyph glyph-name="tau" horiz-adv-x="1125" unicode="τ" d="M1076 796h-359v-433q0 -130 106 -130q53 0 106 22v-241q-76 -33 -206 -33q-323 0 -323 335v480h-86q-149 0 -280 -102v251q93 79 307 79h735v-228z"/>
<glyph glyph-name="upsilon" horiz-adv-x="1261" unicode="υ" d="M125 1024h316v-542q0 -255 202 -255q197 0 197 243q0 258 -129 554h329q118 -271 118 -550q0 -235 -139.5 -367t-384.5 -132q-244 0 -376.5 124t-132.5 345v580z"/>
<glyph glyph-name="phi" horiz-adv-x="1538" unicode="φ" d="M908 216h25q104 0 168 79t64 220q0 136 -45 214.5t-117 78.5q-95 0 -95 -118v-474zM908 -25v-456h-285v456h-20q-244 0 -387.5 145.5t-143.5 389.5q0 304 171 514h328q-83 -79 -141.5 -222t-58.5 -279q0 -143 64.5 -225t169.5 -82h18v455q0 182 97.5 280t277.5 98 q220 0 344 -145t124 -408q0 -235 -145.5 -378t-391.5 -143h-21z"/>
<glyph glyph-name="chi" horiz-adv-x="1135" unicode="χ" d="M1135 -458q-49 -21 -145 -21q-114 0 -193.5 72.5t-154.5 249.5l-96 228l-239 -534h-334l438 801l-128 296q-72 166 -145 166q-48 0 -100 -26v255q47 20 153 20q109 0 179.5 -53.5t122.5 -180.5l88 -217l178 426h337l-375 -690l167 -376q54 -121 86.5 -153.5t73.5 -32.5 q46 0 87 22v-252z"/>
<glyph glyph-name="psi" horiz-adv-x="1620" unicode="ψ" d="M1498 559q0 -269 -142.5 -426t-377.5 -157h-26v-457h-285v457h-26q-235 0 -377.5 157t-142.5 426v465h296v-465q0 -161 64.5 -250t170.5 -89h15v1111h285v-1111h15q106 0 170.5 89t64.5 250v465h296v-465z"/>
<glyph glyph-name="uni03D1" horiz-adv-x="1434" unicode="ϑ" d="M969 1008q-26 288 -164 288q-36 0 -58 -25.5t-22 -60.5q0 -80 66.5 -135t177.5 -67zM1475 821q-78 -25 -181 -43q-9 -370 -190.5 -586.5t-491.5 -216.5q-235 0 -360 105t-125 301q0 68 21 190q20 122 20 170q0 66 -66 66q-40 0 -102 -27v240q84 29 178 29 q146 0 225.5 -76.5t79.5 -208.5q0 -48 -20 -169q-21 -121 -21 -192q0 -84 52 -135t137 -51q152 0 245.5 146t100.5 399q-258 18 -406.5 137.5t-148.5 306.5q0 145 104 238.5t277 93.5q419 0 481 -522q100 18 191 55v-250z"/>
<glyph glyph-name="uni03D2" horiz-adv-x="1266" unicode="ϒ" d="M1307 1159q-50 21 -93 21q-96 0 -172 -150l-264 -526v-504h-323v504l-455 930h369l231 -535q6 -15 33 -117h4q7 38 33 117l116 250q75 162 166 235.5t219 73.5q71 0 136 -24v-275z"/>
<glyph glyph-name="uni03D6" horiz-adv-x="1800" unicode="ϖ" d="M1325 795h-815q-55 -154 -55 -314q0 -254 159 -254q156 0 156 242v211h295v-211q0 -240 156 -240q157 0 157 254q0 160 -53 312zM1790 795h-180q67 -165 67 -324q0 -234 -117.5 -365t-326.5 -131q-220 0 -315 177h-5q-98 -177 -315 -177q-207 0 -323.5 133t-116.5 365 q0 155 67 322q-148 0 -245 -84v241q97 72 268 72h1542v-229z"/>
<glyph glyph-name="endash" horiz-adv-x="1024" unicode="–" d="M1024 436h-1024v221h1024v-221z"/>
<glyph glyph-name="emdash" horiz-adv-x="2048" unicode="—" d="M2048 436h-2048v221h2048v-221z"/>
<glyph glyph-name="quoteleft" horiz-adv-x="594" unicode="‘" d="M481 1468l-110 -444h-275l189 444h196z"/>
<glyph glyph-name="quotesinglbase" horiz-adv-x="594" unicode="‚" d="M477 219l-192 -444h-195l115 444h272z"/>
<glyph glyph-name="quotedblleft" horiz-adv-x="1010" unicode="“" d="M481 1468l-110 -444h-275l189 444h196zM897 1468l-113 -444h-272l190 444h195z"/>
<glyph glyph-name="quotedblright" horiz-adv-x="1010" unicode="”" d="M500 1468l-193 -444h-194l114 444h273zM915 1468l-190 -444h-197l113 444h274z"/>
<glyph glyph-name="dagger" horiz-adv-x="832" unicode="†" d="M766 948h-248v-706h-209v706h-248v176h248v310h209v-310h248v-176z"/>
<glyph glyph-name="daggerdbl" horiz-adv-x="832" unicode="‡" d="M766 555h-248v-313h-209v313h-248v174h248v227h-248v179h248v299h209v-299h248v-179h-248v-227h248v-174z"/>
<glyph glyph-name="ellipsis" horiz-adv-x="1868" unicode="…" d="M309 -23q-78 0 -129 48t-51 118q0 72 51.5 118t130.5 46q81 0 133 -46.5t52 -117.5q0 -73 -51.5 -119.5t-10457105AA4"/>
<glyph glyph-name="perthousand" horiz-adv-x="2573" unicode="‰" d="M1339 551q-145 0 -145 -203q0 -192 141 -192q142 0 142 200q0 93 -38 144t-100 51zM1323 -20q-153 0 -246.5 97t-93.5 261q0 179 99.5 284t265.5 105q160 0 249 -94t89 -266q0 -177 -99 -282t-264 -105zM2136 551q-145 0 -145 -203q0 -192 139 -192q143 0 143 200 q0 93 -38 144t-99 51zM2118 -20q-153 0 -246.5 97t-93.5 261q0 179 99.5 284t264.5 105q161 0 250.5 -94t89.5 -266q0 -177 -99.5 -282t-264.5 -105zM1477 1434l-934 -1434h-244l934 1434h244zM449 1278q-146 0 -146 -203q0 -192 139 -192q142 0 142 200q0 195 -135 195z M430 707q-153 0 -246.5 97t-93.5 261q0 179 99.5 284t265.5 105q159 0 248.5 -95t89.5 -267q0 -177 -99 -281t-264 -104z"/>
<glyph glyph-name="minute" horiz-adv-x="234" unicode="′" d="M175 717l-52 -223h-58l43 223h67z"/>
<glyph glyph-name="second" horiz-adv-x="386" unicode="″" d="M180 717l-52 -223h-58l43 223h67zM322 717l-53 -223h-58l43 223h68z"/>
<glyph glyph-name="guilsinglleft" horiz-adv-x="705" unicode="‹" d="M651 201h-268l-330 336l330 344h268l-334 -344z"/>
<glyph glyph-name="guilsinglright" horiz-adv-x="705" unicode="›" d="M651 537l-329 -336h-269l334 336l-332 344h267z"/>
<glyph glyph-name="radicalex" horiz-adv-x="850" unicode="‾" d="M850 1397h-850v119h850v-119z"/>
<glyph glyph-name="fraction" horiz-adv-x="719" unicode="⁄" d="M932 1434l-891 -1434h-244l891 1434h244z"/>
<glyph glyph-name="foursuperior" horiz-adv-x="856" unicode="⁴" d="M467 1262h-8q-14 -36 -39 -76l-168 -271h211v263q0 47 4 84zM786 760h-110v-176h-213v176h-395v141l350 533h258v-519h110v-155z"/>
<glyph glyph-name="Euro" d="M1094 45q-118 -72 -308 -72q-225 0 -367 124.5t-188 355.5h-122v190h96q-2 25 -2 59q0 18 4 82h-98v187h127q55 231 208 359t381 128q167 0 269 -55v-260q-112 88 -254 88q-110 0 -193.5 -71t-118.5 -189h426v-187h-456q-4 -59 -4 -82q0 -27 2 -59h458v-190h-428 q75 -252 299 -252q141 0 269 90v-246z" unicode="€"/>
<glyph glyph-name="trademark" horiz-adv-x="1579" unicode="™" d="M582 1311h-179v-539h-155v539h-172v123h506v-123zM1395 772h-150v445h-4l-160 -445h-135l-145 445h-6v-445h-148v662h217l156 -453h4l168 453h203v-662z"/>
<glyph glyph-name="partialdiff" horiz-adv-x="1183" unicode="∂" d="M786 645q-38 154 -157 154q-109 0 -185.5 -121t-76.5 -270q0 -191 143 -191q102 0 178 119.5t98 308.5zM819 879h4q2 31 2 39q0 342 -243 342q-134 0 -269 -70l64 250q137 61 285 61q487 0 487 -579q0 -217 -74 -452t-228.5 -365t-371.5 -130q-201 0 -315.5 113 t-114.5 309q0 253 145 438t373 185q169 0 256 -141z"/>
<glyph glyph-name="product" horiz-adv-x="1620" unicode="∏" d="M1475 -471h-324v1626h-664v-1626h-323v1905h1311v-1905z"/>
<glyph glyph-name="summation" horiz-adv-x="1316" unicode="∑" d="M1270 -469h-1217v176l604 785l-579 757v185h1159v-263h-707l500 -671l-528 -707h768v-262z"/>
<glyph glyph-name="minus" horiz-adv-x="1448" unicode="−" d="M1212 485h-974v203h974v-203z"/>
<glyph glyph-name="radical" horiz-adv-x="1331" unicode="√" d="M1196 1516l-408 -1516h-196l-320 729h-182v168h350l242 -567l317 1186h197z"/>
<glyph glyph-name="infinity" horiz-adv-x="1664" unicode="∞" d="M940 586q108 -191 246 -191q80 0 131 54t51 137q0 84 -51.5 138t-132.5 54q-134 0 -244 -192zM729 596q-108 192 -246 192q-81 0 -132.5 -54.5t-51.5 -137.5t51.5 -136.5t134.5 -53.5q136 0 244 190zM834 438q-153 -243 -379 -243q-170 0 -277.5 111.5t-107.5 291.5 q0 165 111 281t274 116q236 0 379 -252q152 242 380 242q171 0 278 -111t107 -290q0 -165 -112 -281.5t-275 -116.5q-231 0 -378 252z"/>
<glyph glyph-name="approxequal" horiz-adv-x="1450" unicode="≈" d="M1255 549q-6 -168 -89.5 -266.5t-223.5 -98.5q-102 0 -258 90q-110 64 -156 64q-123 0 -129 -162h-204q6 170 88.5 268.5t226.5 98.5q114 0 240 -76q130 -78 180 -78q53 0 86 44t35 116h204zM1255 997q-6 -168 -89.5 -266t-223.5 -98q-105 0 -258 88q-109 63 -156 63 q-123 0 -129 -157h-204q6 169 88.5 265.5t226.5 96.5q114 0 240 -76q125 -75 180 -75q53 0 86 43.5t35 115.5h204z"/>
<glyph glyph-name="notequal" horiz-adv-x="1450" unicode="≠" d="M1212 266h-536l-139 -266h-244l139 266h-194v203h301l120 231h-421v205h528l145 283h244l-145 -283h202v-205h-309l-121 -231h430v-203z"/>
<glyph glyph-name="lessequal" horiz-adv-x="1450" unicode="≤" d="M1210 0h-972v203h972v-203zM1194 248l-936 399v174l936 418v-238l-668 -264v-4l668 -248v-237z"/>
<glyph glyph-name="greaterequal" horiz-adv-x="1450" unicode="≥" d="M1210 0h-972v203h972v-203zM1194 647l-936 -399v237l668 246v4l-668 266v238l936 -418v-174z"/>
<glyph glyph-name="lozenge" horiz-adv-x="1203" unicode="◊" d="M899 717l-299 471l-299 -471l299 -471zM1128 717l-473 -717h-114l-469 715l469 719h114z"/>
</font>
</defs>
</svg>
